name c:\Users\T11648sTb\Documents\VSCODE\Pred_Sim_Sprinting\Pred_Sim_Sprinting\MainFunctions\ExperimentalData\IK_Splined\Splined_100_meshInts_p02_maxVel_01.mot
datacolumns 38
datarows 11
range 0.11256566 0.11853559
endheader
                time	/jointset/ground_pelvis/pelvis_tilt/value	/jointset/ground_pelvis/pelvis_list/value	/jointset/ground_pelvis/pelvis_rotation/value	/jointset/ground_pelvis/pelvis_tx/value	/jointset/ground_pelvis/pelvis_ty/value	/jointset/ground_pelvis/pelvis_tz/value	/jointset/hip_r/hip_flexion_r/value	/jointset/hip_r/hip_adduction_r/value	/jointset/hip_r/hip_rotation_r/value	/jointset/knee_r/knee_angle_r/value	/jointset/ankle_r/ankle_angle_r/value	/jointset/subtalar_r/subtalar_angle_r/value	/jointset/mtp_r/mtp_angle_r/value	/jointset/hip_l/hip_flexion_l/value	/jointset/hip_l/hip_adduction_l/value	/jointset/hip_l/hip_rotation_l/value	/jointset/knee_l/knee_angle_l/value	/jointset/ankle_l/ankle_angle_l/value	/jointset/subtalar_l/subtalar_angle_l/value	/jointset/mtp_l/mtp_angle_l/value	/jointset/back/lumbar_extension/value	/jointset/back/lumbar_bending/value	/jointset/back/lumbar_rotation/value	/jointset/acromial_r/arm_flex_r/value	/jointset/acromial_r/arm_add_r/value	/jointset/acromial_r/arm_rot_r/value	/jointset/elbow_r/elbow_flex_r/value	/jointset/radioulnar_r/pro_sup_r/value	/jointset/radius_hand_r/wrist_flex_r/value	/jointset/radius_hand_r/wrist_dev_r/value	/jointset/acromial_l/arm_flex_l/value	/jointset/acromial_l/arm_add_l/value	/jointset/acromial_l/arm_rot_l/value	/jointset/elbow_l/elbow_flex_l/value	/jointset/radioulnar_l/pro_sup_l/value	/jointset/radius_hand_l/wrist_flex_l/value	/jointset/radius_hand_l/wrist_dev_l/value	
          0.11256566	          4.43471603	          3.62792632	        -18.40158218	         -1.31288389	          0.96787165	          0.32058806	          0.36253007	         -6.60014117	          7.47630047	        -38.28435363	         19.18064901	        -10.48471069	          3.44736599	         60.01962498	        -13.26365802	        -19.38954550	       -135.85745008	         -4.75409617	        -12.47172131	         10.65649849	        -17.05464574	         -9.16015801	          6.83634779	         28.14021789	         -3.52998721	         21.38294087	        110.97392942	         65.01820878	        -13.41068043	         13.36130140	        -57.25364661	         -8.06446425	        -25.93607954	         46.10163818	         81.19241129	          1.53980325	         21.17790168	
          0.11291297	          4.37464549	          3.66534247	        -18.43646966	         -1.30939285	          0.96776593	          0.32070394	          0.19778329	         -6.65992772	          7.54976231	        -38.22441924	         18.97399236	        -10.65051934	          3.62682790	         60.30801691	        -13.26902744	        -19.29495069	       -135.68801727	         -4.68261908	        -12.35094991	         10.63975135	        -16.90978481	         -9.21703943	          6.95084354	         28.31671520	         -3.49612983	         21.40783832	        111.10025223	         65.02878981	        -13.42016347	         13.38494936	        -57.49542689	         -8.03478512	        -26.10278067	         46.20471756	         81.16649632	          1.57961377	         21.19564185	
          0.11401034	          4.18515602	          3.78415739	        -18.52521754	         -1.29833731	          0.96744966	          0.32105509	         -0.33591614	         -6.84804146	          7.76391316	        -38.01531236	         18.28116335	        -11.18505199	          4.19492320	         61.21364978	        -13.26562628	        -18.98411526	       -135.14006627	         -4.45937066	        -11.96028758	         10.59099393	        -16.45314699	         -9.39318189	          7.29347549	         28.86949423	         -3.39908474	         21.50070221	        111.50423369	         65.05977127	        -13.45110840	         13.45945589	        -58.26123479	         -7.93996840	        -26.63496134	         46.54237371	         81.07513254	          1.70675774	         21.25159959	
          0.11480566	          4.04824964	          3.87105708	        -18.56876415	         -1.29030044	          0.96723687	          0.32129405	         -0.73518614	         -6.98382372	          7.90100519	        -37.84527579	         17.74142255	        -11.58144950	          4.60641467	         61.86444374	        -13.24315505	        -18.74837563	       -134.73109025	         -4.30047032	        -11.66998957	         10.55975867	        -16.12342645	         -9.51774247	          7.52287142	         29.26576883	         -3.33819197	         21.58192771	        111.80155594	         65.07974863	        -13.47458669	         13.51313100	        -58.81786555	         -7.87004635	        -27.02557171	         46.79799951	         80.99997021	          1.80008300	         21.29208477	
          0.11482828	          4.04436134	          3.87354138	        -18.56974368	         -1.29007149	          0.96723101	          0.32130065	         -0.74669823	         -6.98768192	          7.90467154	        -37.84021372	         17.72560734	        -11.59282575	          4.61810541	         61.88288727	        -13.24226276	        -18.74154965	       -134.71931070	         -4.29598993	        -11.66165785	         10.55892209	        -16.11406341	         -9.52125123	          7.52915691	         29.27699215	         -3.33657579	         21.58441436	        111.81006968	         65.08028496	        -13.47526880	         13.51465277	        -58.83371947	         -7.86804005	        -27.03674183	         46.80540133	         80.99772248	          1.80275137	         21.29323589	
          0.11517560	          3.98472749	          3.91176931	        -18.58296231	         -1.28655498	          0.96714247	          0.32140039	         -0.92447089	         -7.04688123	          7.95927958	        -37.76096245	         17.47966120	        -11.76808960	          4.79739247	         62.16549001	        -13.22677983	        -18.63598158	       -134.53749695	         -4.22751453	        -11.53332372	         10.54644888	        -15.97047015	         -9.57488182	          7.62393463	         29.44893289	         -3.31257439	         21.62382477	        111.94113525	         65.08828862	        -13.48584286	         13.53797005	        -59.07719573	         -7.83711536	        -27.20859030	         46.91989794	         80.96246279	          1.84379831	         21.31090202	
          0.11627297	          3.79703732	          4.03386432	        -18.60204864	         -1.27541768	          0.96687911	          0.32169643	         -1.49923537	         -7.23376273	          8.11047570	        -37.49163531	         16.66348350	        -12.32895440	          5.36095516	         63.05196356	        -13.15536231	        -18.29330831	       -133.95082305	         -4.01514980	        -11.12338900	         10.51168745	        -15.51852395	         -9.74171385	          7.90183322	         29.98822315	         -3.24670592	         21.76395096	        112.35988198	         65.11064814	        -13.52061264	         13.61104131	        -59.84781715	         -7.73768051	        -27.75613560	         47.29218520	         80.84175566	          1.97449166	         21.36668748	
          0.11706828	          3.66176616	          4.12381966	        -18.59410094	         -1.26732048	          0.96670330	          0.32189157	         -1.92801030	         -7.36922155	          8.19886899	        -37.27883156	         16.03510038	        -12.74100968	          5.76546947	         63.68808695	        -13.08171595	        -18.03724592	       -133.51415049	         -3.86545230	        -10.82356334	         10.49097297	        -15.19277346	         -9.86044126	          8.08217532	         30.37554725	         -3.20841790	         21.88058920	        112.66771953	         65.12389483	        -13.54721925	         13.66331538	        -60.40736666	         -7.66378225	        -28.15701096	         47.57147337	         80.74548522	          2.07006278	         21.40710726	
          0.11709091	          3.65792670	          4.12639922	        -18.59360647	         -1.26708980	          0.96669848	          0.32189687	         -1.94035419	         -7.37307697	          8.20111579	        -37.27256631	         16.01677271	        -12.75278762	          5.77691859	         63.70610449	        -13.07934837	        -18.02987721	       -133.50158729	         -3.86124952	        -10.81501648	         10.49043799	        -15.18352823	         -9.86379537	          8.08704343	         30.38652511	         -3.20744429	         21.88409296	        112.67653073	         65.12423303	        -13.54799468	         13.66479312	        -60.42329524	         -7.66165559	        -28.16846197	         47.57952897	         80.74263855	          2.07279135	         21.40825728	
          0.11743822	          3.59904998	          4.16614699	        -18.58415310	         -1.26354672	          0.96662566	          0.32197641	         -2.13082040	         -7.43227547	          8.23371506	        -37.17495372	         15.73232583	        -12.93390546	          5.95220862	         63.98211325	        -13.04110368	        -17.91623206	       -133.30777345	         -3.79714351	        -10.68377459	         10.48259856	        -15.04176668	         -9.91513076	          8.15993474	         30.55475718	         -3.19329977	         21.93916037	        112.81215384	         65.12914569	        -13.56003088	         13.68740669	        -60.66785275	         -7.62883552	        -28.34454254	         47.70391795	         80.69819396	          2.11473854	         21.42591179	
          0.11853559	          3.41371111	          4.29375461	        -18.53129257	         -1.25232495	          0.96641012	          0.32220459	         -2.74443426	         -7.61962612	          8.31295375	        -36.84914591	         14.79531821	        -13.50929325	          6.49975846	         64.84715266	        -12.89661896	        -17.55129330	       -132.68352428	         -3.59988838	        -10.26962293	         10.46235270	        -14.59573325	        -10.07568648	          8.36742101	         31.08298493	         -3.15844425	         22.12895259	        113.24523869	         65.14107113	        -13.59978223	         13.75793183	        -61.44098691	         -7.52285936	        -28.90444432	         48.10556204	         80.54854837	          2.24800566	         21.48172847	
